<?xml version="1.0" standalone="no"?>
<!DOCTYPE svg PUBLIC "-//W3C//DTD SVG 20010904//EN"
 "http://www.w3.org/TR/2001/REC-SVG-20010904/DTD/svg10.dtd">
<svg version="1.0" xmlns="http://www.w3.org/2000/svg"
 width="540.000000pt" height="540.000000pt" viewBox="0 0 540.000000 540.000000"
 preserveAspectRatio="xMidYMid meet">
<metadata>
Created by potrace 1.11, written by Peter Selinger 2001-2013
</metadata>
<g transform="translate(0.000000,540.000000) scale(0.100000,-0.100000)"
fill="#000000" stroke="none">
<path d="M2532 4953 c-42 -8 -57 -56 -57 -183 0 -113 1 -117 37 -190 49 -98
123 -180 209 -231 38 -23 72 -46 76 -52 14 -23 -25 -33 -103 -26 -167 16 -481
-25 -683 -88 -101 -32 -306 -132 -416 -204 -47 -30 -130 -102 -200 -172 -73
-73 -136 -127 -160 -137 -209 -90 -388 -308 -439 -537 -21 -93 -21 -245 1
-356 16 -83 16 -96 0 -215 -59 -433 30 -852 235 -1113 82 -106 234 -263 308
-319 90 -68 366 -212 450 -234 14 -4 57 -16 95 -28 39 -11 76 -22 84 -24 8 -3
-7 -25 -44 -62 -69 -69 -106 -121 -145 -203 -28 -60 -28 -63 -13 -90 16 -26
15 -35 -5 -141 -28 -143 -46 -303 -38 -325 6 -15 8 -15 24 1 12 12 20 48 29
124 13 123 38 279 48 304 5 13 14 16 38 11 60 -11 61 -14 48 -190 -6 -87 -14
-181 -17 -209 -5 -45 -4 -52 13 -56 30 -8 41 19 48 123 3 52 10 121 15 154 52
347 57 425 25 429 -15 2 -41 -57 -53 -123 -6 -35 -13 -65 -14 -67 -2 -2 -29 0
-60 3 l-56 6 38 76 c43 85 102 147 172 181 42 21 50 22 90 10 33 -10 49 -22
69 -55 26 -42 168 -173 244 -225 50 -35 189 -104 235 -118 35 -11 186 -55 228
-67 15 -4 22 -14 22 -31 0 -14 5 -45 11 -70 6 -25 9 -47 6 -51 -3 -3 -45 -9
-93 -14 -48 -5 -92 -14 -99 -19 -7 -6 -19 -8 -28 -5 -8 4 -35 1 -58 -6 -24 -6
-73 -15 -109 -19 -36 -4 -132 -17 -215 -28 -206 -28 -270 -31 -270 -12 0 9
-12 16 -30 18 -16 2 -33 9 -37 15 -5 7 -5 -3 -1 -22 5 -30 4 -34 -12 -27 -14
5 -16 4 -7 -7 7 -8 9 -17 5 -20 -3 -4 109 -7 250 -7 169 0 257 4 257 10 0 7
41 9 118 6 64 -3 243 -10 397 -15 154 -5 287 -12 296 -16 11 -4 18 0 22 14 5
21 11 25 60 36 19 4 27 11 23 20 -8 21 32 65 59 65 30 0 49 22 33 38 -7 7 -15
12 -19 12 -4 0 -19 4 -32 9 l-25 10 21 42 c31 62 28 148 -6 223 -15 32 -26 60
-24 62 2 2 19 1 39 -2 33 -6 36 -9 46 -58 6 -28 14 -76 17 -106 10 -87 54
-351 61 -361 14 -23 40 -6 35 23 -57 365 -71 480 -59 502 18 34 -25 145 -83
210 -34 39 -31 56 8 56 60 0 292 78 393 133 103 55 284 176 347 232 115 101
312 432 361 605 21 76 45 305 58 555 5 100 3 150 -9 215 -9 47 -28 148 -43
225 -50 268 -190 590 -343 790 -142 186 -369 370 -596 482 -73 37 -275 107
-385 133 -199 49 -238 61 -245 79 -11 28 12 32 104 16 75 -13 110 -14 196 -5
123 13 137 17 214 69 56 39 118 115 141 176 12 31 13 95 2 111 -12 19 -88 53
-155 70 -120 31 -320 2 -444 -65 -69 -38 -81 -38 -89 -3 -4 15 -15 38 -26 51
-10 13 -18 29 -18 36 0 19 -138 163 -181 191 -38 24 -142 55 -175 53 -11 -1
-29 -4 -42 -6z m153 -77 c58 -27 142 -111 178 -176 28 -51 67 -171 67 -206 0
-31 11 -30 41 2 96 105 302 168 467 143 71 -10 142 -41 142 -60 0 -6 -9 -19
-19 -30 -11 -12 -22 -36 -25 -55 -4 -18 -12 -33 -19 -31 -7 1 -11 -6 -11 -16
2 -13 -3 -16 -18 -11 -13 4 -18 2 -14 -4 8 -13 -23 -52 -41 -52 -7 0 -13 -5
-13 -11 0 -6 -9 -9 -20 -6 -11 3 -18 1 -14 -4 3 -5 -10 -9 -28 -9 -22 0 -29
-3 -19 -9 19 -12 -39 -24 -124 -24 -93 0 -135 6 -145 23 -4 7 -14 10 -22 7 -8
-3 -29 2 -46 10 -38 18 -62 5 -62 -33 0 -13 -5 -24 -10 -24 -6 0 -10 -8 -8
-17 2 -13 -4 -18 -22 -18 -21 0 -25 5 -28 35 -5 65 -19 86 -57 86 -22 0 -40 7
-48 19 -8 10 -19 15 -24 12 -6 -4 -16 0 -23 8 -7 8 -17 12 -23 8 -5 -3 -7 -1
-3 5 3 6 -3 14 -15 17 -14 5 -19 13 -16 26 3 10 1 22 -4 25 -5 3 -9 -1 -9 -8
0 -7 -9 -4 -22 9 -13 14 -22 37 -24 60 -1 21 -4 45 -7 53 -12 34 -15 60 -6 54
5 -3 9 -1 9 5 0 5 -5 13 -11 16 -6 4 -8 13 -5 21 3 8 2 22 -1 31 -6 15 -7 15
-15 -3 -4 -10 -5 12 -2 51 4 39 11 72 15 73 5 2 9 10 9 18 0 21 38 17 95 -10z
m-118 -188 c-3 -7 -5 -2 -5 12 0 14 2 19 5 13 2 -7 2 -19 0 -25z m168 -478
c395 -24 864 -175 1099 -353 262 -198 356 -305 466 -527 72 -145 115 -247 163
-390 75 -219 97 -356 97 -597 -1 -347 -44 -568 -152 -765 -102 -189 -223 -342
-334 -421 -195 -141 -417 -258 -516 -273 -24 -4 -50 -11 -59 -15 -9 -5 -106
-16 -215 -26 -306 -27 -884 -23 -1112 8 -109 15 -266 57 -340 90 -34 16 -65
29 -67 29 -21 0 -266 133 -358 193 -220 147 -332 285 -468 582 -18 40 -58 213
-74 323 -19 128 -18 473 1 492 7 7 21 -5 48 -44 21 -30 72 -88 114 -128 173
-165 428 -239 667 -193 171 32 286 94 410 219 100 101 146 177 192 317 24 75
27 98 27 224 1 161 -12 221 -76 351 -135 279 -436 450 -753 429 l-90 -6 80 76
c96 92 173 144 320 218 195 98 373 156 537 177 166 20 210 21 393 10z m-1031
-514 c155 -30 286 -105 408 -234 80 -86 131 -176 170 -302 19 -63 23 -97 23
-210 0 -120 -3 -143 -26 -210 -48 -136 -73 -180 -156 -277 -123 -143 -292
-231 -484 -253 -345 -39 -683 175 -793 503 -123 365 39 750 389 924 134 67
310 89 469 59z m657 -2949 c44 -55 44 -64 1 -20 -23 23 -42 44 -42 47 0 15 17
3 41 -27z m547 18 c22 -8 -22 -60 -70 -83 -80 -37 -146 -46 -241 -32 -68 9
-96 19 -129 42 -47 33 -68 56 -68 72 0 11 479 11 508 1z m491 -26 c25 -27 37
-47 34 -58 -4 -9 -3 -13 2 -9 9 8 36 -16 39 -35 1 -6 5 -17 9 -24 5 -9 -20
-11 -98 -11 -117 1 -104 -7 -121 76 -3 16 -11 22 -30 22 -23 0 -25 -3 -22 -37
3 -44 -10 -51 -98 -52 -79 -1 -138 -38 -178 -111 -19 -34 -33 -50 -47 -50 -33
0 -169 50 -239 87 -97 52 -151 85 -147 89 1 2 25 -3 52 -11 93 -29 233 -12
311 37 37 24 83 65 113 103 12 15 26 17 100 12 47 -3 104 -2 126 2 22 5 66 9
97 10 55 1 59 -1 97 -40z m-190 -185 c58 -8 117 -18 131 -22 62 -18 95 -136
66 -235 -9 -30 -21 -59 -28 -64 -16 -13 -81 -27 -220 -49 -98 -15 -110 -15
-132 -1 -28 19 -66 93 -66 130 0 38 36 36 70 -4 19 -24 31 -30 46 -25 57 18
58 164 2 182 -20 6 -68 -19 -68 -36 0 -16 -40 -12 -46 4 -15 40 70 136 119
136 11 0 67 -7 126 -16z m-122 -131 c2 -6 -7 -8 -23 -5 -19 3 -22 7 -12 13 15
10 30 7 35 -8z m343 -243 c0 -6 -11 -16 -25 -22 -14 -6 -30 -23 -36 -38 -9
-20 -28 -32 -75 -48 -69 -24 -94 -27 -94 -12 0 6 -6 10 -13 10 -24 0 -118 52
-114 63 2 6 59 19 126 28 68 10 126 21 129 24 10 10 102 5 102 -5z m-488 -45
c3 -15 1 -25 -6 -25 -6 0 -11 11 -11 25 0 14 3 25 6 25 4 0 9 -11 11 -25z
m-232 -19 c0 -11 -19 -15 -25 -6 -3 5 1 10 9 10 9 0 16 -2 16 -4z m157 -72
c-3 -3 -12 -4 -19 -1 -8 3 -5 6 6 6 11 1 17 -2 13 -5z"/>
<path d="M3160 3746 c-443 -94 -727 -531 -630 -968 65 -288 269 -510 556 -604
104 -33 285 -43 389 -21 168 36 306 109 415 221 167 172 243 359 242 596 0
127 -25 230 -82 342 -108 215 -287 358 -535 428 -64 18 -280 22 -355 6z m395
-41 c338 -113 555 -409 555 -755 0 -358 -241 -672 -590 -767 -99 -27 -310 -24
-413 5 -444 127 -688 606 -527 1037 39 104 82 174 162 260 123 133 245 199
453 249 11 3 79 3 150 1 108 -2 143 -7 210 -30z"/>
<path d="M3515 3173 c-37 -9 -83 -52 -95 -89 -39 -117 63 -226 182 -194 69 19
117 95 104 165 -8 42 -23 54 -23 18 0 -29 -34 -63 -62 -63 -10 0 -27 9 -39 20
-51 48 -7 124 58 102 45 -16 36 3 -13 27 -42 20 -71 24 -112 14z m21 -199 c4
-17 2 -29 -7 -35 -19 -12 -25 -11 -43 7 -12 12 -13 20 -6 35 16 28 48 24 56
-7z"/>
<path d="M977 2096 c-110 -20 -104 -37 18 -56 108 -16 385 -26 385 -13 0 11
-165 59 -235 68 -27 3 -61 8 -75 10 -14 1 -55 -3 -93 -9z"/>
<path d="M1605 2088 c-103 -56 -181 -255 -156 -392 44 -237 267 -385 661 -438
144 -19 513 -16 629 6 317 59 490 192 515 397 13 108 -41 277 -114 357 -29 31
-92 67 -102 57 -8 -8 -197 -54 -313 -76 -93 -17 -169 -23 -341 -27 -197 -4
-233 -2 -335 18 -112 21 -278 66 -352 95 -44 18 -65 18 -92 3z m1012 -472
c115 -33 186 -69 240 -123 39 -39 83 -109 83 -133 0 -18 -64 -40 -184 -63
-151 -29 -480 -31 -666 -3 -117 18 -311 73 -333 95 -13 13 24 72 75 115 74 64
217 121 343 137 33 4 125 6 205 4 119 -3 162 -8 237 -29z"/>
<path d="M3463 1880 c-56 -10 -110 -20 -120 -22 -10 -2 51 -7 136 -11 84 -3
197 -12 250 -18 138 -18 197 1 109 34 -111 42 -212 46 -375 17z"/>
<path d="M1118 1743 c-31 -5 -99 -64 -81 -70 6 -2 25 3 42 11 50 27 150 21
253 -15 49 -17 92 -28 96 -25 6 7 10 4 -53 44 -80 53 -160 70 -257 55z"/>
<path d="M3394 1555 c-34 -7 -83 -25 -110 -39 l-49 -26 45 6 c60 9 318 9 350
0 24 -7 24 -6 -5 19 -52 44 -143 60 -231 40z"/>
<path d="M1284 3181 c-74 -46 -98 -112 -66 -185 26 -57 70 -86 132 -86 62 0
106 29 132 87 18 40 19 51 8 86 l-12 40 -18 -31 c-31 -51 -85 -54 -110 -7 -16
31 0 74 31 82 32 9 16 28 -27 31 -25 1 -50 -4 -70 -17z m31 -181 c0 -18 -6
-26 -23 -28 -24 -4 -38 18 -28 44 3 9 15 14 28 12 17 -2 23 -10 23 -28z"/>
<path d="M3295 750 c4 -6 11 -8 16 -5 14 9 11 15 -7 15 -8 0 -12 -5 -9 -10z"/>
<path d="M3330 745 c0 -8 -6 -15 -14 -15 -8 0 -18 -5 -21 -11 -8 -12 28 -49
48 -49 8 0 20 -7 27 -15 10 -13 9 -15 -9 -15 -14 0 -20 -4 -15 -11 4 -6 19 -9
37 -5 17 3 36 1 43 -5 11 -9 14 -8 14 5 0 9 -7 16 -15 16 -8 0 -12 6 -9 14 4
10 -5 16 -25 21 -28 6 -45 35 -21 35 6 0 10 5 10 10 0 6 -6 9 -12 8 -7 -2 -12
5 -10 15 2 10 -3 17 -13 17 -8 0 -15 -7 -15 -15z"/>
<path d="M3130 730 c0 -5 4 -10 9 -10 6 0 13 5 16 10 3 6 -1 10 -9 10 -9 0
-16 -4 -16 -10z"/>
<path d="M3390 694 c0 -8 5 -12 10 -9 6 4 8 11 5 16 -9 14 -15 11 -15 -7z"/>
<path d="M3136 673 c-6 -14 -5 -15 5 -6 7 7 10 15 7 18 -3 3 -9 -2 -12 -12z"/>
<path d="M2001 344 c0 -11 3 -14 6 -6 3 7 2 16 -1 19 -3 4 -6 -2 -5 -13z"/>
<path d="M1995 270 c4 -6 11 -8 16 -5 14 9 11 15 -7 15 -8 0 -12 -5 -9 -10z"/>
<path d="M2016 184 c-4 -9 -3 -21 2 -26 12 -12 23 15 12 31 -5 9 -9 8 -14 -5z"/>
</g>
</svg>
